# xmcd CD database file
#
# Track frame offsets:
#	150
#	18220
#	38090
#	55542
#	83637
#	104372
#	120197
#	142650
#	163780
#	189155
#	213130
#	226787
#	255055
#
# Disc length: 3658 seconds
#
# Revision: 0
# Processed by: cddbd v1.5.2PL0 Copyright (c) Steve Scherf et al.
# Submitted via: CDex 1.51
#
DISCID=830e480d
DTITLE=The Dagnello Jazz Quintet - Fever
DYEAR=1994
DGENRE=Jazz
TTITLE0=Is You Is or Is You Aint' My Baby
TTITLE1=Fever
TTITLE2=One Note Samba
TTITLE3=You've Changed
TTITLE4=I Can't Believe That You're In Love With Me
TTITLE5=MR. P.C.
TTITLE6=You're My Thrill
TTITLE7=Honeysuckle Rose
TTITLE8=You Don't Know What Love Is
TTITLE9=Love For Sale
TTITLE10=Groovin' High
TTITLE11=More Than You Know
TTITLE12=Let Yourself Go
EXTD=YEAR: 1994
EXTT0=
EXTT1=
EXTT2=
EXTT3=
EXTT4=
EXTT5=
EXTT6=
EXTT7=
EXTT8=
EXTT9=
EXTT10=
EXTT11=
EXTT12=
PLAYORDER=
